<?xml version="1.0" encoding="utf-8"?>
<!-- Generator: Adobe Illustrator 22.0.0, SVG Export Plug-In . SVG Version: 6.00 Build 0)  -->
<svg version="1.1" id="Layer_1" xmlns="http://www.w3.org/2000/svg" xmlns:xlink="http://www.w3.org/1999/xlink" x="0px" y="0px"
	 viewBox="0 0 32 32" style="enable-background:new 0 0 32 32;" xml:space="preserve">
<style type="text/css">
	.st0{fill:#A0A0A0;}
	.st1{fill:#FFFFFF;}
</style>
<g id="Group_211" transform="translate(2759.652 -459)">
	<circle id="Ellipse_125" class="st0" cx="-2743.7" cy="475" r="16"/>
	<path id="Path_486" class="st1" d="M-2749.6,474.8c0,0.5-0.1,1-0.3,1.4s-0.4,0.8-0.7,1.1c-0.3,0.3-0.7,0.6-1.1,0.7
		c-0.5,0.2-1,0.3-1.5,0.3h-2.7v-7.2h2.7c0.5,0,1,0.1,1.5,0.3c0.4,0.2,0.8,0.4,1.1,0.7c0.3,0.3,0.6,0.7,0.7,1.1
		C-2749.7,473.8-2749.6,474.3-2749.6,474.8z M-2751,474.8c0-0.4-0.1-0.7-0.2-1.1c-0.1-0.3-0.2-0.6-0.5-0.8c-0.2-0.2-0.4-0.4-0.7-0.5
		s-0.6-0.2-0.9-0.2h-1.4v5h1.4c0.3,0,0.6-0.1,0.9-0.2c0.3-0.1,0.5-0.3,0.7-0.5s0.4-0.5,0.5-0.8C-2751,475.5-2751,475.1-2751,474.8z
		 M-2741.6,474.8c0,0.5-0.1,1-0.3,1.5c-0.2,0.4-0.4,0.8-0.7,1.2c-0.3,0.3-0.7,0.6-1.1,0.8c-0.5,0.2-1,0.3-1.5,0.3s-1-0.1-1.5-0.3
		c-0.4-0.2-0.8-0.4-1.1-0.8c-0.3-0.3-0.6-0.7-0.7-1.2c-0.2-0.5-0.3-1-0.3-1.5s0.1-1,0.3-1.5c0.2-0.4,0.4-0.8,0.7-1.2
		c0.3-0.3,0.7-0.6,1.1-0.8c0.5-0.2,1-0.3,1.5-0.3c0.3,0,0.7,0,1,0.1s0.6,0.2,0.9,0.4c0.3,0.2,0.5,0.3,0.7,0.6
		c0.2,0.2,0.4,0.5,0.5,0.7c0.2,0.3,0.3,0.6,0.3,0.9C-2741.6,474.1-2741.6,474.4-2741.6,474.8L-2741.6,474.8z M-2743,474.8
		c0-0.4,0-0.7-0.2-1.1c-0.1-0.3-0.2-0.6-0.5-0.8c-0.2-0.2-0.4-0.4-0.7-0.5s-0.6-0.2-0.9-0.2c-0.3,0-0.6,0.1-0.9,0.2
		c-0.3,0.1-0.5,0.3-0.7,0.5s-0.4,0.5-0.5,0.8s-0.2,0.7-0.2,1.1s0,0.7,0.2,1.1c0.1,0.3,0.2,0.6,0.5,0.8c0.2,0.2,0.4,0.4,0.7,0.5
		s0.6,0.2,0.9,0.2c0.3,0,0.6-0.1,0.9-0.2c0.3-0.1,0.5-0.3,0.7-0.5s0.4-0.5,0.5-0.8C-2743,475.5-2743,475.1-2743,474.8L-2743,474.8z
		 M-2731.1,471.2l-2.2,7.2h-1.2l-1.6-4.9c0-0.1-0.1-0.3-0.1-0.4c0,0.1,0,0.2-0.1,0.2c0,0.1,0,0.1-0.1,0.2l-1.6,4.9h-1.2l-2.2-7.2
		h1.1c0.1,0,0.2,0,0.3,0.1s0.1,0.1,0.2,0.2l1.2,4.3c0,0.1,0.1,0.2,0.1,0.3l0.1,0.4c0-0.1,0.1-0.3,0.1-0.4s0.1-0.2,0.1-0.3l1.4-4.3
		c0-0.1,0.1-0.2,0.2-0.2c0.1-0.1,0.2-0.1,0.3-0.1h0.4c0.1,0,0.2,0,0.3,0.1s0.1,0.1,0.2,0.2l1.4,4.3c0.1,0.2,0.1,0.5,0.2,0.7
		c0-0.3,0.1-0.5,0.1-0.7l1.2-4.3c0-0.1,0.1-0.2,0.2-0.2c0.1-0.1,0.2-0.1,0.3-0.1L-2731.1,471.2z"/>
</g>
</svg>
