<svg xmlns="http://www.w3.org/2000/svg" width="27.912" height="9.054" viewBox="0 0 27.912 9.054">
  <g id="Layer_2" data-name="Layer 2" transform="translate(-3.085 -7.92)">
    <g id="Layer_1" data-name="Layer 1">
      <path id="Path_2233" data-name="Path 2233" d="M97.468,68.308H95.19l1.424-8.748h2.278Z" transform="translate(-82.284 -51.485)" fill="#0066b2"/>
      <path id="Path_2234" data-name="Path 2234" d="M30.656,59.56l-2.178,6.017-.256-1.3h0l-.766-3.932a.977.977,0,0,0-1.085-.788H22.792l-.042.148a8.542,8.542,0,0,1,2.382,1l1.978,7.6h2.373l3.624-8.744Z" transform="translate(-19.665 -51.485)" fill="#0066b2"/>
      <path id="Path_2235" data-name="Path 2235" d="M174.862,68.308h2.091l-1.824-8.748H173.3a1.047,1.047,0,0,0-1.052.652l-3.4,8.1h2.374l.475-1.3h2.9Zm-2.507-3.094,1.2-3.274.678,3.274Z" transform="translate(-145.956 -51.485)" fill="#0066b2"/>
      <path id="Path_2236" data-name="Path 2236" d="M128.824,60.67l.325-1.879a6.584,6.584,0,0,0-2.049-.381c-1.129,0-3.814.494-3.814,2.9,0,2.26,3.151,2.287,3.151,3.475s-2.826.975-3.758.225l-.339,1.965a6.4,6.4,0,0,0,2.576.494c1.559,0,3.9-.8,3.9-2.994,0-2.275-3.178-2.487-3.178-3.476S127.853,60.133,128.824,60.67Z" transform="translate(-105.752 -50.49)" fill="#0066b2"/>
      <path id="Path_2237" data-name="Path 2237" d="M28.228,64.3l-.766-3.932a.977.977,0,0,0-1.085-.788H22.792l-.042.148a8.833,8.833,0,0,1,3.38,1.695A6.82,6.82,0,0,1,28.228,64.3Z" transform="translate(-19.665 -51.502)" fill="#f9a533"/>
    </g>
  </g>
</svg>
